{
  "accessors": [
    {
      "bufferView": 2,
      "componentType": 5126,
      "count": 25290,
      "max": [
        0.9920004606246948,
        0.9920003414154053,
        1.0000001192092896
      ],
      "min": [
        -0.9920004606246948,
        -0.9983949065208435,
        -1.0000001192092896
      ],
      "type": "VEC3"
    },
    {
      "bufferView": 2,
      "byteOffset": 303480,
      "componentType": 5126,
      "count": 25290,
      "max": [
        0.9996235370635986,
        0.9949092268943787,
        0.9987316131591797
      ],
      "min": [
        -0.9996235370635986,
        -0.9996235370635986,
        -0.9987361431121826
      ],
      "type": "VEC3"
    },
    {
      "bufferView": 1,
      "componentType": 5126,
      "count": 25290,
      "max": [
        1.0000001192092896,
        1.0000001192092896
      ],
      "min": [
        0.0,
        0.0
      ],
      "type": "VEC2"
    },
    {
      "bufferView": 0,
      "componentType": 5125,
      "count": 98304,
      "type": "SCALAR"
    },
    {
      "bufferView": 2,
      "byteOffset": 606960,
      "componentType": 5126,
      "count": 2111,
      "max": [
        1.325934886932373,
        0.9392362236976624,
        0.8223199844360352
      ],
      "min": [
        -1.325934886932373,
        -0.9704862236976624,
        -0.7782661318778992
      ],
      "type": "VEC3"
    },
    {
      "bufferView": 2,
      "byteOffset": 632292,
      "componentType": 5126,
      "count": 2111,
      "max": [
        0.9972599744796753,
        0.9999603629112244,
        0.9999101161956787
      ],
      "min": [
        -0.9972599744796753,
        -0.9930633306503296,
        -0.9999291300773621
      ],
      "type": "VEC3"
    },
    {
      "bufferView": 1,
      "byteOffset": 202320,
      "componentType": 5126,
      "count": 2111,
      "max": [
        0.9998559951782227,
        0.9048510193824768
      ],
      "min": [
        0.00014400000509340316,
        0.00014400000509340316
      ],
      "type": "VEC2"
    },
    {
      "bufferView": 0,
      "byteOffset": 393216,
      "componentType": 5125,
      "count": 11808,
      "type": "SCALAR"
    }
  ],
  "asset": {
    "extras": {
      "author": "ritsuka (https://sketchfab.com/ritsuka)",
      "license": "CC-BY-4.0 (http://creativecommons.org/licenses/by/4.0/)",
      "source": "https://sketchfab.com/3d-models/sd-sky-230315a-7b88df45719c4ce28e6df8c966c7c515",
      "title": "SD_Sky_230315a"
    },
    "generator": "Sketchfab-15.24.0",
    "version": "2.0"
  },
  "bufferViews": [
    {
      "buffer": 0,
      "byteLength": 440448,
      "name": "floatBufferViews",
      "target": 34963
    },
    {
      "buffer": 0,
      "byteLength": 219208,
      "byteOffset": 440448,
      "byteStride": 8,
      "name": "floatBufferViews",
      "target": 34962
    },
    {
      "buffer": 0,
      "byteLength": 657624,
      "byteOffset": 659656,
      "byteStride": 12,
      "name": "floatBufferViews",
      "target": 34962
    }
  ],
  "buffers": [
    {
      "byteLength": 1317280,
      "uri": "scene.bin"
    }
  ],
  "extensionsUsed": [
    "KHR_materials_specular"
  ],
  "images": [
    {
      "uri": "textures/material_emissive.png"
    }
  ],
  "materials": [
    {
      "emissiveFactor": [
        1.0,
        1.0,
        1.0
      ],
      "emissiveTexture": {
        "index": 0
      },
      "extensions": {
        "KHR_materials_specular": {
          "specularColorFactor": [
            1.0,
            1.0,
            1.0
          ],
          "specularFactor": 0.0
        }
      },
      "name": "material",
      "pbrMetallicRoughness": {
        "baseColorFactor": [
          0.0,
          0.0,
          0.0,
          1.0
        ],
        "metallicFactor": 0.0
      }
    },
    {
      "name": "Suzanne",
      "pbrMetallicRoughness": {
        "baseColorFactor": [
          0.6626694827947562,
          0.7442445054772096,
          0.8834365490119371,
          1.0
        ],
        "roughnessFactor": 0.2482758620689655
      }
    }
  ],
  "meshes": [
    {
      "name": "Object_0",
      "primitives": [
        {
          "attributes": {
            "NORMAL": 1,
            "POSITION": 0,
            "TEXCOORD_0": 2
          },
          "indices": 3,
          "material": 0,
          "mode": 4
        }
      ]
    },
    {
      "name": "Object_1",
      "primitives": [
        {
          "attributes": {
            "NORMAL": 5,
            "POSITION": 4,
            "TEXCOORD_0": 6
          },
          "indices": 7,
          "material": 1,
          "mode": 4
        }
      ]
    }
  ],
  "nodes": [
    {
      "children": [
        1
      ],
      "matrix": [
        1.0,
        0.0,
        0.0,
        0.0,
        0.0,
        2.220446049250313e-16,
        -1.0,
        0.0,
        0.0,
        1.0,
        2.220446049250313e-16,
        0.0,
        0.0,
        0.0,
        0.0,
        1.0
      ],
      "name": "Sketchfab_model"
    },
    {
      "children": [
        2
      ],
      "name": "root"
    },
    {
      "children": [
        3,
        5
      ],
      "matrix": [
        1.0,
        0.0,
        0.0,
        0.0,
        0.0,
        2.220446049250313e-16,
        1.0,
        0.0,
        0.0,
        -1.0,
        2.220446049250313e-16,
        0.0,
        0.0,
        0.0,
        0.0,
        1.0
      ],
      "name": "GLTF_SceneRootNode"
    },
    {
      "children": [
        4
      ],
      "matrix": [
        -35.78001581898665,
        -1.058879152993984e-05,
        145.67015839090004,
        0.0,
        -145.11582401926358,
        -13.073366801004981,
        -35.643859214407556,
        0.0,
        12.695996017193552,
        -149.4291890415728,
        3.118424261195997,
        0.0,
        0.0,
        0.0,
        0.0,
        1.0
      ],
      "name": "Skybox_0"
    },
    {
      "mesh": 0,
      "name": "Object_4"
    },
    {
      "children": [
        6
      ],
      "name": "Suzanne_2"
    },
    {
      "mesh": 1,
      "name": "Object_6"
    }
  ],
  "samplers": [
    {
      "magFilter": 9729,
      "minFilter": 9987,
      "wrapS": 10497,
      "wrapT": 10497
    }
  ],
  "scene": 0,
  "scenes": [
    {
      "name": "Sketchfab_Scene",
      "nodes": [
        0
      ]
    }
  ],
  "textures": [
    {
      "sampler": 0,
      "source": 0
    }
  ]
}
